<svg width="16" height="16" viewBox="0 0 16 16" fill="none" xmlns="http://www.w3.org/2000/svg">
<path d="M7.66732 13.9997C11.1651 13.9997 14.0007 11.1641 14.0007 7.66634C14.0007 4.16854 11.1651 1.33301 7.66732 1.33301C4.16951 1.33301 1.33398 4.16854 1.33398 7.66634C1.33398 11.1641 4.16951 13.9997 7.66732 13.9997Z" fill="white"/>
<path d="M14.1997 14.6664C14.0797 14.6664 13.9597 14.6197 13.873 14.533L12.633 13.293C12.453 13.113 12.453 12.8197 12.633 12.633C12.813 12.453 13.1064 12.453 13.293 12.633L14.533 13.873C14.713 14.053 14.713 14.3464 14.533 14.533C14.4397 14.6197 14.3197 14.6664 14.1997 14.6664Z" fill="white"/>
</svg>
